<?xml version="1.0" standalone="no"?>
<!DOCTYPE svg PUBLIC "-//W3C//DTD SVG 20010904//EN"
 "http://www.w3.org/TR/2001/REC-SVG-20010904/DTD/svg10.dtd">
<svg version="1.0" xmlns="http://www.w3.org/2000/svg"
 width="1024" height="1024" viewBox="0 0 1024 1024"
 preserveAspectRatio="xMidYMid slice">

<g transform="translate(0.000000,1024.000000) scale(0.100000,-0.100000)"
fill="#000000" stroke="none">
<path d="M2196 7062 l-50 -7 40 -14 c88 -30 170 -86 259 -175 110 -111 139
-163 154 -275 16 -119 15 -2539 0 -2613 -22 -102 -75 -184 -156 -237 l-46 -31
561 0 c309 0 562 2 562 4 0 2 -24 16 -54 31 -126 64 -206 171 -226 301 -12 78
-19 1896 -8 1892 4 -2 101 -120 215 -263 115 -143 303 -377 418 -519 116 -143
252 -312 303 -375 238 -296 561 -631 763 -793 370 -296 729 -424 1244 -444
451 -18 882 82 1172 272 256 166 410 397 486 729 20 86 21 126 26 1000 3 501
5 927 3 949 l-3 39 -89 -5 c-188 -11 -254 -78 -294 -300 -13 -67 -14 -69 -15
-28 -2 75 -29 181 -57 223 -36 55 -109 86 -218 94 l-86 6 0 -869 c0 -560 -4
-892 -11 -934 -29 -178 -104 -325 -234 -456 -120 -120 -215 -169 -402 -204
-90 -18 -320 -8 -408 17 -292 84 -504 310 -587 624 -21 81 -22 106 -25 639
l-4 555 67 110 c63 103 129 235 159 315 7 19 20 53 29 75 l16 40 -22 -29 c-62
-80 -237 -272 -330 -362 -231 -222 -506 -413 -827 -573 l-124 -63 -48 48 c-27
27 -49 54 -49 60 0 6 26 22 58 34 31 13 61 27 67 32 5 5 -5 23 -27 46 -19 20
-172 201 -339 402 -793 956 -763 920 -834 969 -89 62 -100 63 -560 66 -231 2
-442 0 -469 -3z m1419 -892 c44 -44 77 -80 75 -80 -3 0 -41 36 -85 80 -44 44
-77 80 -75 80 3 0 41 -36 85 -80z m735 -724 c151 -153 276 -281 278 -285 1 -3
-33 -27 -75 -53 -97 -57 -273 -151 -273 -145 0 2 55 35 123 72 67 37 141 81
165 97 42 29 42 29 25 53 -10 14 -24 22 -31 20 -7 -3 -11 -1 -8 4 6 9 -31 47
-43 45 -13 -3 -42 24 -30 28 6 2 -167 184 -384 403 -218 220 -396 402 -397
405 0 7 335 -326 650 -644z m-80 -490 c0 -2 -7 -7 -16 -10 -8 -3 -12 -2 -9 4
6 10 25 14 25 6z"/>
<path d="M4490 5276 c0 -2 8 -10 18 -17 15 -13 16 -12 3 4 -13 16 -21 21 -21
13z"/>
<path d="M4605 7063 l-39 -4 64 -31 c122 -59 208 -174 229 -309 6 -37 11 -238
11 -472 l0 -408 118 80 c141 96 285 214 370 305 l62 67 0 257 c0 343 16 405
121 476 l50 33 -53 6 c-56 7 -866 6 -933 0z"/>
<path d="M7032 7063 c-9 -3 -4 -15 17 -38 41 -47 51 -108 51 -312 l0 -176 91
6 c109 7 168 32 209 89 32 43 50 113 50 188 0 67 16 64 24 -5 14 -118 62 -198
145 -240 33 -16 240 -38 242 -25 0 3 3 43 5 90 6 139 14 184 43 246 30 64 76
111 144 146 l42 22 -50 7 c-57 8 -993 10 -1013 2z"/>
</g>
</svg>
